<svg id="Graphic_Elements" xmlns="http://www.w3.org/2000/svg" width="30.797" height="30.797" viewBox="0 0 30.797 30.797">
  <path id="Path_40228" data-name="Path 40228" d="M30.8,15.4A15.4,15.4,0,1,0,12.992,30.61V19.849H9.082V15.4h3.91V12.006c0-3.86,2.3-5.991,5.817-5.991a23.632,23.632,0,0,1,3.447.3v3.789H20.315a2.226,2.226,0,0,0-2.509,2.4V15.4h4.271l-.682,4.451H17.805V30.61A15.4,15.4,0,0,0,30.8,15.4Z" fill="#4676ed"/>
  <path id="Path_40229" data-name="Path 40229" d="M52.112,40.2l.682-4.451H48.524V32.865a2.225,2.225,0,0,1,2.509-2.4h1.941V26.671a23.632,23.632,0,0,0-3.447-.3c-3.518,0-5.817,2.131-5.817,5.991v3.392H39.8V40.2h3.91V50.964a15.576,15.576,0,0,0,4.813,0V40.2h3.588Z" transform="translate(-30.721 -20.354)" fill="#fff"/>
</svg>
