<svg xmlns="http://www.w3.org/2000/svg" width="30.644" height="30.644" viewBox="0 0 30.644 30.644">
  <g id="Graphic_Elements" transform="translate(0)">
    <ellipse id="Ellipse_112" data-name="Ellipse 112" cx="15.322" cy="15.322" rx="15.322" ry="15.322" transform="translate(0)" fill="#4467ad"/>
    <path id="Path_40233" data-name="Path 40233" d="M60.463,51.729c.253-.285.461-.573.721-.817a3.956,3.956,0,0,1,2.847-1.122,6.556,6.556,0,0,1,1.788.217A3.5,3.5,0,0,1,68.3,52.618a10.939,10.939,0,0,1,.331,2.993c0,2.126-.007,4.255,0,6.381,0,.2-.055.251-.251.251q-1.643-.014-3.287,0c-.194,0-.235-.057-.235-.24q.01-3.035,0-6.073a5.434,5.434,0,0,0-.176-1.508A1.7,1.7,0,0,0,62.821,53.1a2.034,2.034,0,0,0-2.14,2.033,7.334,7.334,0,0,0-.057.949q0,2.953,0,5.906c0,.2-.048.253-.249.253q-1.656-.014-3.312,0c-.178,0-.228-.046-.228-.226q.007-5.845,0-11.691c0-.194.064-.237.246-.237,1.047.007,2.1.009,3.144,0,.194,0,.242.062.24.244-.011.465,0,.931,0,1.4Z" transform="translate(-43.88 -38.431)" fill="#fefefe"/>
    <path id="Path_40234" data-name="Path 40234" d="M33.595,57.185c0,1.928,0,3.855,0,5.783,0,.214-.052.278-.274.276-1.1-.011-2.19-.009-3.287,0-.176,0-.228-.043-.228-.224q.007-5.855,0-11.712c0-.162.039-.219.21-.219,1.111.007,2.222.009,3.333,0,.214,0,.242.08.242.265q-.007,2.915,0,5.831Z" transform="translate(-23.016 -39.435)" fill="#fefefe"/>
    <path id="Path_40235" data-name="Path 40235" d="M32.918,26.769a2.189,2.189,0,1,1-2.185-2.179,2.195,2.195,0,0,1,2.185,2.179Z" transform="translate(-22.036 -18.98)" fill="#fefefe"/>
  </g>
</svg>
