<svg xmlns="http://www.w3.org/2000/svg" width="31.34" height="30.644" viewBox="0 0 31.34 30.644">
  <g id="Graphic_Elements" transform="translate(0)">
    <ellipse id="Ellipse_113" data-name="Ellipse 113" cx="15.67" cy="15.322" rx="15.67" ry="15.322" transform="translate(0)" fill="#5a99ec"/>
    <path id="Path_40236" data-name="Path 40236" d="M32.664,51.577A11.555,11.555,0,0,0,44.3,39.942c0-.178,0-.354-.011-.529A8.33,8.33,0,0,0,46.327,37.3a8.114,8.114,0,0,1-2.347.643,4.106,4.106,0,0,0,1.8-2.261,8.185,8.185,0,0,1-2.6.992,4.091,4.091,0,0,0-6.967,3.73,11.6,11.6,0,0,1-8.427-4.273,4.091,4.091,0,0,0,1.266,5.459,4.073,4.073,0,0,1-1.852-.511v.052a4.09,4.09,0,0,0,3.28,4.008,4.1,4.1,0,0,1-1.846.071,4.1,4.1,0,0,0,3.819,2.84A8.264,8.264,0,0,1,26.4,49.74a11.579,11.579,0,0,0,6.267,1.836" transform="translate(-20.039 -27.309)" fill="#fff"/>
  </g>
</svg>
