<svg id="Graphic_Elements" xmlns="http://www.w3.org/2000/svg" xmlns:xlink="http://www.w3.org/1999/xlink" width="30.644" height="30.644" viewBox="0 0 30.644 30.644">
  <defs>
    <linearGradient id="linear-gradient" x1="0.5" y1="0.927" x2="0.5" y2="-0.073" gradientUnits="objectBoundingBox">
      <stop offset="0" stop-color="#78cd51"/>
      <stop offset="1" stop-color="#a0fc84"/>
    </linearGradient>
  </defs>
  <ellipse id="Ellipse_114" data-name="Ellipse 114" cx="15.322" cy="15.322" rx="15.322" ry="15.322" transform="translate(0)" fill="url(#linear-gradient)"/>
  <g id="WA_Logo" transform="translate(6.035 5.318)">
    <path id="Path_40237" data-name="Path 40237" d="M43.268,26.173A9.769,9.769,0,0,0,27.895,37.956l-1.385,5.06,5.178-1.357a9.756,9.756,0,0,0,4.667,1.189h0a9.769,9.769,0,0,0,6.91-16.674ZM36.358,41.2h0a8.1,8.1,0,0,1-4.131-1.131l-.3-.176-3.073.805.821-3-.194-.308a8.12,8.12,0,1,1,6.878,3.8Zm4.453-6.08c-.244-.123-1.444-.712-1.668-.794s-.386-.123-.55.123-.63.794-.773.956-.285.182-.529.062a6.643,6.643,0,0,1-1.962-1.211,7.348,7.348,0,0,1-1.357-1.69c-.141-.244-.016-.376.107-.5s.244-.285.365-.427a1.716,1.716,0,0,0,.244-.406.444.444,0,0,0-.021-.427c-.062-.123-.55-1.323-.753-1.811s-.4-.411-.55-.42-.306-.009-.468-.009a.9.9,0,0,0-.65.306,2.737,2.737,0,0,0-.853,2.035,4.732,4.732,0,0,0,1,2.523,10.861,10.861,0,0,0,4.17,3.684,13.969,13.969,0,0,0,1.392.513,3.344,3.344,0,0,0,1.538.1,2.512,2.512,0,0,0,1.647-1.161,2.036,2.036,0,0,0,.141-1.161c-.062-.1-.224-.162-.468-.285Z" transform="translate(-26.51 -23.31)" fill="#fff" fill-rule="evenodd"/>
  </g>
</svg>
