<svg id="g4558" xmlns="http://www.w3.org/2000/svg" width="13.738" height="11.863" viewBox="0 0 13.738 11.863">
  <path id="path4533" d="M11.312,16.482a.312.312,0,0,0-.312.312v.678a.312.312,0,0,0,.624,0v-.678A.312.312,0,0,0,11.312,16.482Z" transform="translate(-8.19 -12.9)" fill="#555"/>
  <path id="path4543" d="M11.312,21.914a.312.312,0,0,0-.312.312V22.9a.312.312,0,0,0,.624,0v-.678A.312.312,0,0,0,11.312,21.914Z" transform="translate(-8.19 -16.636)" fill="#555"/>
  <path id="path4545" d="M11.312,27.346a.312.312,0,0,0-.312.312v.678a.312.312,0,0,0,.624,0v-.678A.312.312,0,0,0,11.312,27.346Z" transform="translate(-8.19 -20.371)" fill="#555"/>
  <path id="path4501" d="M4.144,5.008a.943.943,0,0,0-.816.638L2.912,6.9A1,1,0,0,0,2,7.887V9.129a.312.312,0,0,0,.216.3,1.249,1.249,0,0,1,.72,1.214,1.249,1.249,0,0,1-.72,1.215.312.312,0,0,0-.216.3v1.866a1,1,0,0,0,.993.993H7.922l5.3,1.81a.938.938,0,0,0,1.186-.594l.4-1.223a1,1,0,0,0,.923-.986V12.152a.312.312,0,0,0-.216-.3,1.249,1.249,0,0,1-.72-1.214,1.249,1.249,0,0,1,.72-1.215.312.312,0,0,0,.216-.3V7.887a1,1,0,0,0-.993-.993H9.816l-5.3-1.842a1.347,1.347,0,0,0-.372-.045Zm.046.62a.328.328,0,0,1,.125.016l3.6,1.25H3.573l.348-1.052a.3.3,0,0,1,.269-.215Zm-1.2,1.891H4.81v.3a.312.312,0,0,0,.624,0v-.3h9.31a.361.361,0,0,1,.369.369V8.95a1.88,1.88,0,0,0-.937,1.69,1.88,1.88,0,0,0,.937,1.69v1.688a.361.361,0,0,1-.369.369H5.434c0-.108,0-.219,0-.327a.312.312,0,0,0-.624,0c0,.108,0,.22,0,.327H2.993a.361.361,0,0,1-.369-.369V12.331a1.88,1.88,0,0,0,.937-1.69,1.88,1.88,0,0,0-.937-1.69V7.887a.361.361,0,0,1,.369-.369Zm6.862,7.493h4.3l-.337,1.02a.3.3,0,0,1-.391.2Z" transform="translate(-2 -5.008)" fill="#555"/>
  <path id="circle4507" d="M30.53,25.565a1.013,1.013,0,1,1-1.013,1.013A1.018,1.018,0,0,1,30.53,25.565Zm0,.624a.389.389,0,1,0,.388.388A.384.384,0,0,0,30.53,26.19Z" transform="translate(-20.925 -19.147)" fill="#555"/>
  <path id="circle4509" d="M21.007,16.043a1.013,1.013,0,1,1-1.013,1.013A1.018,1.018,0,0,1,21.007,16.043Zm0,.624a.388.388,0,1,0,.388.388A.384.384,0,0,0,21.007,16.667Z" transform="translate(-14.375 -12.597)" fill="#555"/>
  <path id="path1852" d="M25.3,18.383,22.33,21.356a.312.312,0,0,0,.441.441l2.973-2.973a.312.312,0,0,0,0-.441A.317.317,0,0,0,25.3,18.383Z" transform="translate(-15.92 -14.145)" fill="#555"/>
</svg>
