<svg xmlns="http://www.w3.org/2000/svg" width="11.135" height="11.132" viewBox="0 0 11.135 11.132">
  <g id="XMLID_105_" transform="translate(0 -0.036)">
    <path id="XMLID_106_" d="M5.993,106.011l-1.7,1.7h0a1.807,1.807,0,0,1-2.556-2.556h0l1.7-1.7a.6.6,0,0,0-.852-.852l-1.7,1.7h0a3.012,3.012,0,0,0,4.26,4.259h0l1.7-1.7a.6.6,0,0,0-.852-.852Z" transform="translate(0 -98.28)" fill="#fff"/>
    <path id="XMLID_107_" d="M109.446,3.046A3.012,3.012,0,0,0,104.3.917h0l-1.7,1.7a.6.6,0,1,0,.852.852l1.7-1.7h0a1.807,1.807,0,0,1,2.556,2.556h0l-1.7,1.7a.6.6,0,1,0,.852.852l1.7-1.7h0A2.992,2.992,0,0,0,109.446,3.046Z" transform="translate(-98.311 0)" fill="#fff"/>
    <path id="XMLID_108_" d="M81.39,85.649a.6.6,0,0,0,.852,0l3.407-3.407a.6.6,0,0,0-.852-.852L81.39,84.8A.6.6,0,0,0,81.39,85.649Z" transform="translate(-77.952 -77.917)" fill="#fff"/>
  </g>
</svg>
