<svg xmlns="http://www.w3.org/2000/svg" width="13.111" height="16.107" viewBox="0 0 13.111 16.107">
  <g id="Icon" transform="translate(-3.25 -1.25)">
    <path id="Path_5965" data-name="Path 5965" d="M10.307,1.25A5.086,5.086,0,0,0,5.25,6.36,7.846,7.846,0,0,0,6.284,9.685a32.539,32.539,0,0,0,3.6,5.229.561.561,0,0,0,.853,0,32.539,32.539,0,0,0,3.6-5.229A7.846,7.846,0,0,0,15.364,6.36a5.086,5.086,0,0,0-5.057-5.11Zm0,3a2.06,2.06,0,1,0,2.06,2.06A2.061,2.061,0,0,0,10.307,4.247Z" transform="translate(-0.502)" fill="#880a28" fill-rule="evenodd"/>
    <path id="Path_5966" data-name="Path 5966" d="M13.389,17.009a4.646,4.646,0,0,1,1.458.674c.225.171.39.338.39.542a.529.529,0,0,1-.164.337,2.349,2.349,0,0,1-.687.49,10.7,10.7,0,0,1-4.581.859,10.7,10.7,0,0,1-4.581-.859,2.349,2.349,0,0,1-.687-.49.529.529,0,0,1-.164-.337c0-.2.165-.371.39-.542a4.646,4.646,0,0,1,1.458-.674A.562.562,0,0,0,5.9,15.932a5.152,5.152,0,0,0-2.081,1.086,1.682,1.682,0,0,0-.566,1.207,1.882,1.882,0,0,0,.9,1.488,10.5,10.5,0,0,0,5.653,1.322,10.5,10.5,0,0,0,5.653-1.322,1.882,1.882,0,0,0,.9-1.488,1.682,1.682,0,0,0-.566-1.207,5.152,5.152,0,0,0-2.081-1.086.562.562,0,0,0-.324,1.077Z" transform="translate(0 -3.677)" fill="#cc8d47" fill-rule="evenodd"/>
  </g>
</svg>
