<svg xmlns="http://www.w3.org/2000/svg" width="12.768" height="12.768" viewBox="0 0 12.768 12.768">
  <g id="layer2" transform="translate(-1.59 -1.584)">
    <path id="path828" d="M14.045,1.584a.3.3,0,0,0-.21.092l-1.3,1.3-.393-.393a1.074,1.074,0,0,0-.718-.346,2.7,2.7,0,0,0-.451.04l-2.127.3a2.8,2.8,0,0,0-1.685.914L1.924,8.369l-.006.006A1.169,1.169,0,0,0,1.59,9.2a1.059,1.059,0,0,0,.344.834l-.018-.016,4,4L5.9,14.008a1.059,1.059,0,0,0,.834.344,1.169,1.169,0,0,0,.829-.328l.006-.006.359-.386,1.431.533a1.152,1.152,0,0,0,.9-.034,1.169,1.169,0,0,0,.618-.642l1.571-4.71a2.8,2.8,0,0,0,.91-1.68l.3-2.127a2.7,2.7,0,0,0,.04-.451,1.074,1.074,0,0,0-.346-.718l-.393-.393,1.3-1.3a.3.3,0,0,0-.221-.522ZM11.4,2.85c.119,0,.143.007.3.168l.393.393-.7.7a.9.9,0,0,0-.392-.091.912.912,0,1,0,.912.912.9.9,0,0,0-.091-.392l.7-.7.393.393c.161.161.165.185.168.3a2.551,2.551,0,0,1-.034.351l-.3,2.127A2.055,2.055,0,0,1,12,8.37L7.134,13.6a.619.619,0,0,1-.4.146.489.489,0,0,1-.365-.131L6.35,13.6l-4-4-.018-.016A.489.489,0,0,1,2.2,9.211a.619.619,0,0,1,.146-.4h0L7.572,3.937A2.055,2.055,0,0,1,8.926,3.18l2.127-.3A2.553,2.553,0,0,1,11.4,2.85Zm-.392,1.776a.3.3,0,1,1-.3.3A.3.3,0,0,1,11.012,4.626ZM5.842,7.967a.3.3,0,0,0-.212.521l1.824,1.824a.3.3,0,0,0,.43-.431L6.059,8.059a.3.3,0,0,0-.218-.092Zm-.912.911a.3.3,0,0,0-.212.523l1.824,1.823a.3.3,0,1,0,.429-.43L5.148,8.971a.3.3,0,0,0-.219-.093Zm6.527.972-1.144,3.43a.619.619,0,0,1-.306.3.521.521,0,0,1-.386.033l-1.239-.464Z" fill="#555"/>
  </g>
</svg>
