<svg width="114" height="26" fill="none" xmlns="http://www.w3.org/2000/svg"><path d="M25.548 17.21h8.814l2.56 8.1h6.819L34.42.267h-7.503L14.978 25.31h6.908l3.662-8.099zm7.146-5.032H27.9l2.8-6.193 1.994 6.193zm63.065 5.032h8.813l2.561 8.1h6.819L104.602.267h-7.503L85.189 25.31h6.907l3.663-8.099zm7.146-5.032h-4.794l2.799-6.193 1.995 6.193zM64.583 25.31V.267h7.087c3.93 0 6.878-.357 9.498 1.34.655.417 1.161.863 1.548 1.34a6.706 6.706 0 011.668 4.436c0 2.382-1.25 4.496-3.186 5.747-.209.149-.745.417-.953.536-.804.417-1.697.715-1.846.744l5.031 10.9h-6.312l-6.224-13.756s3.038.06 4.288-.09C77.09 11.286 78.4 9.618 78.4 7.92c0-1.578-.804-2.203-1.46-2.412-.535-.178-3.155-.208-4.942-.208H70.24v20.01h-5.657zm-19.413 0V.267h17.478V5.3h-11.79v5.628h10.6v4.347h-10.6v10.034H45.17zM0 23.255v-5.747c1.489 1.28 3.335 2.471 5.3 2.77 1.965.297 4.883.029 5.092-1.668.149-1.31-1.638-2.352-2.889-3.276l-1.548-1.072c-2.054-1.488-3.662-2.858-4.436-4.079C.744 8.963.447 7.593.625 6.074.893 4.08 1.905 2.62 3.573 1.608 4.793.834 7.325 0 9.796 0c3.454 0 4.705.357 6.253.863l.209 5.688c-1.579-1.191-2.918-1.608-5.092-1.787-2.948-.238-4.318.893-4.496 1.906-.09.655 0 1.131.417 1.697.655 1.012 6.104 4.139 8.158 7.146.804 1.191 1.042 2.204.864 3.782-.268 2.263-1.549 3.692-3.425 4.764-1.875 1.072-4.287 1.518-7.295 1.161-1.935-.268-4.079-.983-5.389-1.965z" fill="#333"/></svg>