<svg id="Group_30946" data-name="Group 30946" xmlns="http://www.w3.org/2000/svg" xmlns:xlink="http://www.w3.org/1999/xlink" width="191.905" height="73.666" viewBox="0 0 191.905 73.666">
  <defs>
    <clipPath id="clip-path">
      <rect id="Rectangle_14985" data-name="Rectangle 14985" width="191.905" height="73.666" fill="none"/>
    </clipPath>
  </defs>
  <g id="Group_30945" data-name="Group 30945" clip-path="url(#clip-path)">
    <path id="Path_66865" data-name="Path 66865" d="M67.394,48.738l-3.723-.367,3.431,2.26a21.249,21.249,0,0,1-.878,3.244H4.971A52.717,52.717,0,0,1,1.26,42.723,51.908,51.908,0,0,1,.018,30.3l5.6-1.981L.266,26.885c.723-5.839,2.86-9.93,6.1-10.637,2.037-.443,4.238.516,6.359,2.537l-1.678,1.622,2.213-1.079a27.114,27.114,0,0,1,4.15,5.947,58.624,58.624,0,0,1,1.658-11.144L23.2,13.68l-3.767-.887C21.659,5.076,25.422,0,29.692,0c2.269,0,4.4,1.438,6.231,3.946L32.168,5.66h4.857a33.734,33.734,0,0,1,3.24,8.288l-6.479,3.275H41a59.885,59.885,0,0,1,.846,6.259,24.209,24.209,0,0,1,4.666-4.6l2.412,1.526-1.39-2.193c2.029-1.211,3.983-1.6,5.668-.975,2.736,1.019,4.254,4.522,4.5,9.367l-4.058.882,4.09,1.155a43.832,43.832,0,0,1-1.41,9.746c2.229-2.88,4.653-4.406,6.818-3.923,1.933.428,3.323,2.984,3.99,6.351l-3.459,1.067H67.31a26.615,26.615,0,0,1,.084,6.854" fill="#82a957"/>
    <path id="Path_66866" data-name="Path 66866" d="M27.252,17.862l.923,36.013h-1.2l-.071-2.744a16.854,16.854,0,0,1-8.237-9.83L15.693,32.01a.6.6,0,1,1,1.134-.364L19.8,40.938a15.682,15.682,0,0,0,7.066,8.815L26.058,17.89a.6.6,0,0,1,.583-.615h.016a.6.6,0,0,1,.6.587" fill="#4f7e64"/>
    <path id="Path_66867" data-name="Path 66867" d="M53.354,40.231l-6.966,6.918A16.956,16.956,0,0,1,34.821,52.1l-.48,1.778H33.1l7.469-27.745a.6.6,0,1,1,1.155.312L35.144,50.892a15.777,15.777,0,0,0,10.4-4.594l6.962-6.918a.6.6,0,0,1,.847.851" fill="#4f7e64"/>
    <path id="Path_66868" data-name="Path 66868" d="M185.36,72.738a.427.427,0,0,1-.166-.065q-22.311.614-44.639.911a.323.323,0,0,1-.421.008l-.008-.008a.355.355,0,0,1-.344-.279c-2.744-2.3-3.052-6.581-1.643-9.747,2.278-5.111,7.119-1.922,10.827-.53a19.872,19.872,0,0,1-1.421-9.078c.154-1.793.672-4.3,2.647-4.958,2.129-.708,4.278,1.376,5.488,2.869,1.745,2.146,2.854,4.708,4.517,6.909.717-4.881,4.4-11.32,9.989-10.6,6.427.83,3.9,9.738,2.769,14.332,3.181-2.181,7.621-5.456,11.381-3.392a3.835,3.835,0,0,1,1.862,4.072,7.092,7.092,0,0,1-2.591,4.145c2.935-.749,7.342-1.518,8.184,1.538.939,3.412-4.185,4.241-6.431,3.869" fill="#96aa43"/>
  </g>
</svg>
