<svg id="calendar_2_" data-name="calendar (2)" xmlns="http://www.w3.org/2000/svg" width="10.823" height="10.823" viewBox="0 0 10.823 10.823">
  <path id="Path_28214" data-name="Path 28214" d="M9.428.846H8.455V.338a.338.338,0,1,0-.676,0V.846H3.044V.338a.338.338,0,1,0-.676,0V.846H1.4A1.4,1.4,0,0,0,0,2.241V9.428a1.4,1.4,0,0,0,1.4,1.4H9.428a1.4,1.4,0,0,0,1.4-1.4V2.241A1.4,1.4,0,0,0,9.428.846ZM1.4,1.522h.972V1.86a.338.338,0,0,0,.676,0V1.522H7.779V1.86a.338.338,0,1,0,.676,0V1.522h.972a.72.72,0,0,1,.719.719v.8H.676v-.8A.72.72,0,0,1,1.4,1.522Zm8.033,8.624H1.4a.72.72,0,0,1-.719-.719V3.72h9.47V9.428A.72.72,0,0,1,9.428,10.146Z" fill="#555"/>
</svg>
