<svg xmlns="http://www.w3.org/2000/svg" xmlns:xlink="http://www.w3.org/1999/xlink" width="156.298" height="196.513" viewBox="0 0 156.298 196.513">
  <defs>
    <clipPath id="clip-path">
      <rect id="Rectangle_14982" data-name="Rectangle 14982" width="156.298" height="188.44" fill="none"/>
    </clipPath>
    <clipPath id="clip-path-2">
      <rect id="Rectangle_14983" data-name="Rectangle 14983" width="55.995" height="42.762" transform="translate(0 0)" fill="none"/>
    </clipPath>
  </defs>
  <g id="Group_31124" data-name="Group 31124" transform="translate(74.447 -1409.586)">
    <g id="Group_30940" data-name="Group 30940" transform="translate(-74.447 1409.586)">
      <g id="Group_30939" data-name="Group 30939" clip-path="url(#clip-path)">
        <path id="Path_66851" data-name="Path 66851" d="M25.5,42.31a24.8,24.8,0,0,1,24.8-24.8,25.182,25.182,0,0,1,3,.187c0-.016,0-.032,0-.049a8.519,8.519,0,0,1,13.925-6.585A17.874,17.874,0,0,1,94.157,5.2a21.145,21.145,0,0,1,34.955,14.183c.673-.054,1.352-.089,2.039-.089a25.144,25.144,0,0,1,12.536,46.942,15.009,15.009,0,0,1-23.314,16.09C111.394,94.66,94.736,100.9,78.026,96.783,62.311,92.91,50.9,80.946,47.746,66.977A24.8,24.8,0,0,1,25.5,42.31" fill="#bdd752"/>
        <path id="Path_66852" data-name="Path 66852" d="M70.209,45.814c12.774,16.536,26.976,17.11,41.652,11.023,28.247-11.711,31.827,9.394,31.827,9.394a14.991,14.991,0,0,1-14.5,18.968c-.205,0-.411,0-.615-.012a25.837,25.837,0,0,0-16.258,5.18,42.208,42.208,0,0,1-60.7-13.353,35.415,35.415,0,0,0-13.6-13.161A24.791,24.791,0,0,1,25.5,42.311c3.552-16.6,31.93-13.032,44.7,3.5" fill="#96aa43"/>
        <path id="Path_66853" data-name="Path 66853" d="M93.079,188.44V60.233A27.4,27.4,0,0,1,82.73,57.005V188.44Z" fill="#706663"/>
        <path id="Path_66854" data-name="Path 66854" d="M67.781,43.015a110.4,110.4,0,0,0,2.345,13.058,96.717,96.717,0,0,0,3.9,12.61c.788,2.047,1.686,4.044,2.667,5.988a47.7,47.7,0,0,0,3.28,5.6,30.188,30.188,0,0,0,8.873,8.891l-1.887,2.861A33.144,33.144,0,0,1,77.8,81.649a49.954,49.954,0,0,1-3.05-6.073c-.885-2.075-1.671-4.182-2.34-6.321a97.741,97.741,0,0,1-3.128-13.009,110.651,110.651,0,0,1-1.505-13.231" fill="#706663"/>
        <path id="Path_66855" data-name="Path 66855" d="M122.629,69.916a68.429,68.429,0,0,0-9.734,3.359A64.956,64.956,0,0,0,103.832,78a45.571,45.571,0,0,0-7.846,6.2A35.375,35.375,0,0,0,92.8,87.888a30.6,30.6,0,0,0-2.5,4.067l-.737,1.431-1.761-.032A23.853,23.853,0,0,1,77.5,90.045a44.813,44.813,0,0,1-8.2-6.129,81.494,81.494,0,0,1-12.629-15.35,96.219,96.219,0,0,1-9-17.529,64.852,64.852,0,0,1-2.883-9.457,32.679,32.679,0,0,1-.793-9.952l1.822.147a30.668,30.668,0,0,0,1.2,9.27,62.372,62.372,0,0,0,3.2,8.946A93.053,93.053,0,0,0,59.705,66.5,77.33,77.33,0,0,0,72.342,80.471,39.974,39.974,0,0,0,79.9,85.592,18.66,18.66,0,0,0,88,87.838l-2.5,1.4a35.826,35.826,0,0,1,3.434-4.524,39.962,39.962,0,0,1,4.04-3.844,49.422,49.422,0,0,1,9.162-5.878,67.889,67.889,0,0,1,9.919-3.979,70.073,70.073,0,0,1,10.322-2.45Z" fill="#706663"/>
        <path id="Path_66856" data-name="Path 66856" d="M97.59,80.84A18.471,18.471,0,0,0,76.849,62.477c0-.013,0-.025,0-.037a6.357,6.357,0,0,0-10.39-4.914,13.337,13.337,0,0,0-20.1-4.378A15.776,15.776,0,0,0,20.284,63.73c-.5-.04-1.009-.066-1.521-.066A18.761,18.761,0,0,0,9.409,98.689a11.2,11.2,0,0,0,17.4,12.006c6.7,9.206,19.129,13.862,31.6,10.79C70.127,118.6,78.645,109.668,81,99.245A18.5,18.5,0,0,0,97.59,80.84" fill="#b2c762"/>
        <path id="Path_66857" data-name="Path 66857" d="M64.235,83.455C54.7,95.792,44.107,96.221,33.156,91.68,12.08,82.941,9.409,98.689,9.409,98.689a11.185,11.185,0,0,0,10.816,14.153c.154,0,.308,0,.46-.01a19.289,19.289,0,0,1,12.13,3.865,31.5,31.5,0,0,0,45.294-9.962,26.437,26.437,0,0,1,10.149-9.821A18.5,18.5,0,0,0,97.59,80.84c-2.649-12.381-23.824-9.722-33.355,2.615" fill="#96aa43"/>
        <path id="Path_66858" data-name="Path 66858" d="M83.8,72.869l-1.359.11C82.96,83.6,71.706,103.23,60.066,111.293A.971.971,0,0,1,58.679,110c4.739-8.206,6.937-19.86,7.368-28.635-1,8.779-9.637,30.783-11.155,27.722V91.8a20.447,20.447,0,0,1-7.722,2.409V105.7c-.27,4.524-15.745-4.332-21.863-5.27l-.185,1.011a45.8,45.8,0,0,1,17.244,8.9,13.339,13.339,0,0,1,4.8,10.217V188.44h7.722V128.184A14.673,14.673,0,0,1,61,116.316C73.493,107.258,84.932,84.648,83.8,72.869" fill="#816a61"/>
      </g>
    </g>
    <g id="Group_30942" data-name="Group 30942" transform="translate(3.702 1563.337)">
      <g id="Group_30941" data-name="Group 30941" clip-path="url(#clip-path-2)">
        <path id="Path_66859" data-name="Path 66859" d="M55.784,40.746l-2.47-.24,2.235,1.469a3.865,3.865,0,0,1-.246.787H3.818a24,24,0,0,1-2.764-6.987A43.635,43.635,0,0,1,.015,25.369l4.693-1.661-4.486-1.2c.608-4.889,2.394-8.314,5.109-8.9,1.7-.371,3.551.432,5.321,2.125l-1.4,1.355,1.851-.9a22.694,22.694,0,0,1,3.474,4.976,49.182,49.182,0,0,1,1.388-9.33l3.464-.377-3.158-.743C18.14,4.25,21.286,0,24.86,0c1.906,0,3.687,1.2,5.216,3.305l-3.14,1.431H31a28.484,28.484,0,0,1,2.71,6.943l-5.424,2.743h6.041a50.467,50.467,0,0,1,.71,5.244,20.184,20.184,0,0,1,3.906-3.857l2.016,1.278L39.8,15.252a5.532,5.532,0,0,1,4.748-.82c2.294.853,3.562,3.791,3.77,7.845l-3.4.737,3.419.973a36.159,36.159,0,0,1-1.18,8.155c1.869-2.409,3.9-3.687,5.709-3.283,1.622.361,2.293,2.65,2.85,5.474l-2.4.737h2.525a22.579,22.579,0,0,1-.055,5.676" fill="#93aeb7"/>
        <path id="Path_66860" data-name="Path 66860" d="M24.483,19.879l1.639,22.883H25.094L23.462,19.955a.512.512,0,1,1,1.021-.076" fill="#4f7e64"/>
        <path id="Path_66861" data-name="Path 66861" d="M35.976,33.049l-2.928,9.713H31.977l3.016-10.008a.513.513,0,0,1,.983.295" fill="#4f7e64"/>
        <path id="Path_66862" data-name="Path 66862" d="M20.986,42.762H19.642L9.651,30.957a.512.512,0,0,1,.781-.661Z" fill="#4f7e64"/>
        <path id="Path_66863" data-name="Path 66863" d="M45.241,42.647l-.24.115h-2.36l2.152-1.038a.513.513,0,1,1,.448.923" fill="#4f7e64"/>
      </g>
    </g>
  </g>
</svg>
